<svg id="Calque_1" data-name="Calque 1" xmlns="http://www.w3.org/2000/svg" viewBox="0 0 419.62 199.12"><defs><style>.cls-1{fill:#263c5c;}.cls-2{fill:#fff;}.cls-3{fill:#47a682;}</style></defs><rect id="Rectangle_96" data-name="Rectangle 96" class="cls-1" x="11.66" y="12.48" width="384" height="167" rx="5"/><circle class="cls-2" cx="392.82" cy="170.71" r="22.95"/><g id="Groupe_32" data-name="Groupe 32"><circle id="Ellipse_29" data-name="Ellipse 29" class="cls-2" cx="22.16" cy="157.98" r="5.5"/><circle id="Ellipse_30" data-name="Ellipse 30" class="cls-2" cx="22.16" cy="126.98" r="5.5"/><circle id="Ellipse_28" data-name="Ellipse 28" class="cls-2" cx="22.16" cy="95.98" r="5.5"/><circle id="Ellipse_27" data-name="Ellipse 27" class="cls-2" cx="22.16" cy="64.98" r="5.5"/><circle id="Ellipse_26" data-name="Ellipse 26" class="cls-2" cx="22.16" cy="33.98" r="5.5"/></g><g id="Groupe_33" data-name="Groupe 33"><circle id="Ellipse_29-2" data-name="Ellipse 29-2" class="cls-2" cx="385.16" cy="157.98" r="5.5"/><circle id="Ellipse_30-2" data-name="Ellipse 30-2" class="cls-2" cx="385.16" cy="126.98" r="5.5"/><circle id="Ellipse_28-2" data-name="Ellipse 28-2" class="cls-2" cx="385.16" cy="95.98" r="5.5"/><circle id="Ellipse_27-2" data-name="Ellipse 27-2" class="cls-2" cx="385.16" cy="64.98" r="5.5"/><circle id="Ellipse_26-2" data-name="Ellipse 26-2" class="cls-2" cx="385.16" cy="33.98" r="5.5"/></g><g id="Groupe_42" data-name="Groupe 42"><g id="Groupe_40" data-name="Groupe 40"><rect id="Rectangle_97" data-name="Rectangle 97" class="cls-2" x="219.66" y="67.48" width="136" height="37"/></g><g id="Groupe_41" data-name="Groupe 41"><rect id="Rectangle_98" data-name="Rectangle 98" class="cls-2" x="220.66" y="116.48" width="136" height="37"/></g><g id="Groupe_39" data-name="Groupe 39"><rect id="Rectangle_100" data-name="Rectangle 100" class="cls-2" x="51.66" y="130.48" width="136" height="23"/></g><g id="Groupe_38" data-name="Groupe 38"><rect id="Rectangle_101" data-name="Rectangle 101" class="cls-2" x="50.66" y="89.48" width="136" height="23"/></g></g><path id="Tracé_16" data-name="Tracé 16" class="cls-3" d="M369.22,170.66a23.61,23.61,0,1,1,23.61,23.61A23.62,23.62,0,0,1,369.22,170.66Zm34.29-4.08a2.59,2.59,0,0,0-3.66-3.66l-10,10-4.07-4.07a2.59,2.59,0,0,0-3.66,3.65l5.91,5.91a2.6,2.6,0,0,0,3.65,0Z"/><path class="cls-2" d="M193.16,49.14h-2.28L190,46.78h-4.15L185,49.14h-2.22l4-10.39H189ZM189.3,45l-1.44-3.85L186.46,45Z"/><path class="cls-2" d="M200.91,45.32l2,.65a4.52,4.52,0,0,1-1.56,2.52,4.87,4.87,0,0,1-6.16-.59A5.39,5.39,0,0,1,193.9,44a5.7,5.7,0,0,1,1.34-4,4.61,4.61,0,0,1,3.52-1.43,4.34,4.34,0,0,1,3.1,1.12,4.21,4.21,0,0,1,1.06,1.92l-2.08.49a2.16,2.16,0,0,0-.77-1.27,2.19,2.19,0,0,0-1.42-.47,2.36,2.36,0,0,0-1.87.83,4.05,4.05,0,0,0-.72,2.68,4.38,4.38,0,0,0,.71,2.81,2.3,2.3,0,0,0,1.84.84,2.08,2.08,0,0,0,1.44-.54A3,3,0,0,0,200.91,45.32Z"/><path class="cls-2" d="M211.39,45.32l2,.65a4.58,4.58,0,0,1-1.56,2.52,4.87,4.87,0,0,1-6.16-.59A5.39,5.39,0,0,1,204.38,44a5.7,5.7,0,0,1,1.34-4,4.6,4.6,0,0,1,3.52-1.43,4.34,4.34,0,0,1,3.1,1.12,4.21,4.21,0,0,1,1.06,1.92l-2.08.49a2.16,2.16,0,0,0-.77-1.27,2.21,2.21,0,0,0-1.42-.47,2.36,2.36,0,0,0-1.87.83,4.05,4.05,0,0,0-.72,2.68,4.38,4.38,0,0,0,.71,2.81,2.28,2.28,0,0,0,1.84.84,2.08,2.08,0,0,0,1.44-.54A3,3,0,0,0,211.39,45.32Z"/><path class="cls-2" d="M215.21,38.75h2.1v5.63a10.65,10.65,0,0,0,.08,1.74,1.68,1.68,0,0,0,.64,1,2.2,2.2,0,0,0,1.38.39,2.13,2.13,0,0,0,1.35-.37,1.42,1.42,0,0,0,.54-.9,11.51,11.51,0,0,0,.1-1.76V38.75h2.09v5.46a13.38,13.38,0,0,1-.17,2.64,3,3,0,0,1-.62,1.31,3.27,3.27,0,0,1-1.23.84,5.27,5.27,0,0,1-2,.32,5.7,5.7,0,0,1-2.26-.35,3.25,3.25,0,0,1-1.22-.89,2.85,2.85,0,0,1-.58-1.15,12.38,12.38,0,0,1-.21-2.64Z"/><path class="cls-2" d="M225.17,45.76l2-.2a2.49,2.49,0,0,0,.75,1.51,2.27,2.27,0,0,0,1.52.48,2.34,2.34,0,0,0,1.53-.43,1.27,1.27,0,0,0,.51-1,.91.91,0,0,0-.22-.62,1.55,1.55,0,0,0-.75-.45c-.25-.09-.81-.24-1.68-.46a5.89,5.89,0,0,1-2.37-1,2.74,2.74,0,0,1-.95-2.09A2.68,2.68,0,0,1,226,40a2.82,2.82,0,0,1,1.29-1.05,5.26,5.26,0,0,1,2.05-.36,4.39,4.39,0,0,1,2.94.85,3,3,0,0,1,1,2.29l-2.1.1a1.79,1.79,0,0,0-.58-1.16,2.1,2.1,0,0,0-1.32-.35,2.38,2.38,0,0,0-1.43.38.73.73,0,0,0-.34.64.81.81,0,0,0,.31.63,5.37,5.37,0,0,0,1.93.7,10.07,10.07,0,0,1,2.27.75,2.82,2.82,0,0,1,1.14,1.05,3.25,3.25,0,0,1-.08,3.33,3,3,0,0,1-1.4,1.16,6,6,0,0,1-2.26.38,4.5,4.5,0,0,1-3-.92A4,4,0,0,1,225.17,45.76Z"/><path class="cls-2" d="M235.38,49.14V38.75h7.7v1.76h-5.6v2.3h5.21v1.75h-5.21v2.83h5.8v1.75Zm2.67-11L239,36h2.23l-1.94,2.12Z"/><path class="cls-2" d="M249.08,38.75h3.83a7.55,7.55,0,0,1,2,.2,3.51,3.51,0,0,1,1.57,1,4.68,4.68,0,0,1,1,1.68,7.6,7.6,0,0,1,.34,2.46,6.92,6.92,0,0,1-.32,2.21,4.64,4.64,0,0,1-1.11,1.83,3.7,3.7,0,0,1-1.48.83,6.19,6.19,0,0,1-1.85.22h-3.95Zm2.1,1.76v6.88h1.56a5.47,5.47,0,0,0,1.27-.1,1.9,1.9,0,0,0,.85-.43,2.23,2.23,0,0,0,.55-1,6.9,6.9,0,0,0,.21-1.91,6.18,6.18,0,0,0-.21-1.84,2.33,2.33,0,0,0-.6-1,2,2,0,0,0-1-.49,9.05,9.05,0,0,0-1.72-.1Z"/><path class="cls-2" d="M259.57,49.14V38.75h7.7v1.76h-5.61v2.3h5.22v1.75h-5.22v2.83h5.81v1.75Z"/><path class="cls-2" d="M273.28,49.14V38.75h4.42a7.78,7.78,0,0,1,2.42.28,2.38,2.38,0,0,1,1.2,1,2.94,2.94,0,0,1,.46,1.64,2.77,2.77,0,0,1-.69,1.93,3.38,3.38,0,0,1-2,1,4.83,4.83,0,0,1,1.12.87,12.2,12.2,0,0,1,1.19,1.68l1.27,2h-2.51l-1.51-2.26a14.32,14.32,0,0,0-1.11-1.53,1.65,1.65,0,0,0-.63-.43,3.33,3.33,0,0,0-1.05-.12h-.43v4.34Zm2.1-6h1.55a8.29,8.29,0,0,0,1.89-.13,1.12,1.12,0,0,0,.58-.44,1.46,1.46,0,0,0-.06-1.63,1.28,1.28,0,0,0-.79-.4,14.55,14.55,0,0,0-1.53,0h-1.64Z"/><path class="cls-2" d="M283.75,49.14V38.75h7.71v1.76h-5.61v2.3h5.22v1.75h-5.22v2.83h5.8v1.75Zm2.67-11,1-2.12h2.23l-1.95,2.12Z"/><path class="cls-2" d="M300.08,45.32l2,.65a4.52,4.52,0,0,1-1.56,2.52,4.41,4.41,0,0,1-2.75.83,4.47,4.47,0,0,1-3.41-1.42A5.43,5.43,0,0,1,293.06,44a5.7,5.7,0,0,1,1.34-4,4.61,4.61,0,0,1,3.52-1.43A4.33,4.33,0,0,1,301,39.7a4.12,4.12,0,0,1,1.06,1.92l-2.07.49a2.16,2.16,0,0,0-2.19-1.74,2.39,2.39,0,0,0-1.88.83,4.05,4.05,0,0,0-.72,2.68,4.38,4.38,0,0,0,.71,2.81,2.3,2.3,0,0,0,1.84.84,2.08,2.08,0,0,0,1.44-.54A3.11,3.11,0,0,0,300.08,45.32Z"/><path class="cls-2" d="M303.91,49.14V38.75h7.7v1.76H306v2.3h5.21v1.75H306v2.83h5.8v1.75Z"/><path class="cls-2" d="M313.59,49.14V38.75H317a12.46,12.46,0,0,1,2.5.16,2.76,2.76,0,0,1,1.49,1,3.21,3.21,0,0,1,.6,2,3.42,3.42,0,0,1-.34,1.61,3,3,0,0,1-.89,1,2.9,2.9,0,0,1-1.08.49,11.93,11.93,0,0,1-2.18.15h-1.37v3.92Zm2.09-8.63v3h1.15a5.76,5.76,0,0,0,1.66-.16,1.33,1.33,0,0,0,.65-.51,1.43,1.43,0,0,0,.24-.81,1.37,1.37,0,0,0-.33-.94,1.46,1.46,0,0,0-.84-.46,9.8,9.8,0,0,0-1.51-.07Z"/><path class="cls-2" d="M325.6,49.14V40.51h-3.08V38.75h8.25v1.76H327.7v8.63Z"/><path class="cls-2" d="M332.06,49.14V38.75h2.1V49.14Z"/><path class="cls-2" d="M335.73,44a6.52,6.52,0,0,1,.48-2.66,4.76,4.76,0,0,1,1-1.43,3.86,3.86,0,0,1,1.34-.93,5.56,5.56,0,0,1,2.24-.41A4.87,4.87,0,0,1,344.43,40a5.45,5.45,0,0,1,1.38,4,5.46,5.46,0,0,1-1.37,3.94,5.45,5.45,0,0,1-7.34,0A5.37,5.37,0,0,1,335.73,44Zm2.16-.07a3.92,3.92,0,0,0,.82,2.68,2.8,2.8,0,0,0,4.13,0,4,4,0,0,0,.8-2.71,3.89,3.89,0,0,0-.78-2.66,2.64,2.64,0,0,0-2.08-.88,2.67,2.67,0,0,0-2.09.89A3.92,3.92,0,0,0,337.89,43.94Z"/><path class="cls-2" d="M347.47,49.14V38.75h2l4.25,6.94V38.75h1.94V49.14h-2.1l-4.19-6.77v6.77Z"/></svg>