<svg id="Calque_1" data-name="Calque 1" xmlns="http://www.w3.org/2000/svg" viewBox="0 0 524.25 155.81"><defs><style>.cls-1,.cls-5{isolation:isolate;}.cls-2,.cls-5{fill:#373737;}.cls-3{fill:#263c5c;}.cls-4{fill:#47a682;}.cls-5{font-size:15px;font-family:Arial-BoldMT, Arial;font-weight:700;}</style></defs><g id="verrouiler-illustre"><g id="lock"><g class="cls-1"><path class="cls-2" d="M430.58,140.87l-3.84-10.73h2.35l2.72,7.94,2.62-7.94h2.3l-3.84,10.73Z"/><path class="cls-2" d="M441.5,138.4l2.05.34a3.38,3.38,0,0,1-1.24,1.72,3.72,3.72,0,0,1-2.14.59,3.47,3.47,0,0,1-3-1.33,4.38,4.38,0,0,1-.77-2.68,4.27,4.27,0,0,1,1-3,3.31,3.31,0,0,1,2.56-1.09,3.42,3.42,0,0,1,2.73,1.15,5,5,0,0,1,1,3.51h-5.15A2,2,0,0,0,439,139a1.54,1.54,0,0,0,1.18.51,1.32,1.32,0,0,0,.82-.26A1.69,1.69,0,0,0,441.5,138.4Zm.12-2.08a2,2,0,0,0-.46-1.36,1.47,1.47,0,0,0-2.18,0,1.88,1.88,0,0,0-.44,1.33Z"/><path class="cls-2" d="M447.31,140.87h-2.06V133.1h1.91v1.1a3.32,3.32,0,0,1,.89-1,1.57,1.57,0,0,1,.89-.25,2.57,2.57,0,0,1,1.35.39l-.64,1.79a1.79,1.79,0,0,0-1-.33,1.12,1.12,0,0,0-.73.23,1.69,1.69,0,0,0-.48.86,12.7,12.7,0,0,0-.17,2.61Z"/><path class="cls-2" d="M453.15,140.87h-2.06V133.1H453v1.1a3.19,3.19,0,0,1,.89-1,1.56,1.56,0,0,1,.88-.25,2.63,2.63,0,0,1,1.36.39l-.64,1.79a1.81,1.81,0,0,0-1-.33,1.15,1.15,0,0,0-.74.23,1.62,1.62,0,0,0-.47.86,12.7,12.7,0,0,0-.17,2.61Z"/><path class="cls-2" d="M456.54,136.87a4.17,4.17,0,0,1,.51-2,3.44,3.44,0,0,1,1.43-1.47,4.28,4.28,0,0,1,2.07-.5,3.86,3.86,0,0,1,2.89,1.15,4,4,0,0,1,1.13,2.89,4,4,0,0,1-1.14,2.93,3.87,3.87,0,0,1-2.87,1.16,4.56,4.56,0,0,1-2-.48,3.31,3.31,0,0,1-1.47-1.42A4.69,4.69,0,0,1,456.54,136.87Zm2.11.12a2.55,2.55,0,0,0,.55,1.77,1.8,1.8,0,0,0,2.7,0,2.59,2.59,0,0,0,.55-1.79,2.54,2.54,0,0,0-.55-1.76,1.8,1.8,0,0,0-2.7,0A2.56,2.56,0,0,0,458.65,137Z"/><path class="cls-2" d="M471.3,140.87v-1.16a3.17,3.17,0,0,1-2.58,1.34,3,3,0,0,1-1.41-.34,2.11,2.11,0,0,1-.9-1,4.43,4.43,0,0,1-.28-1.72V133.1h2.06v3.57a9.43,9.43,0,0,0,.12,2,1.08,1.08,0,0,0,.41.59,1.29,1.29,0,0,0,.76.21,1.59,1.59,0,0,0,.95-.29,1.56,1.56,0,0,0,.57-.71,8.6,8.6,0,0,0,.15-2.1V133.1h2.06v7.77Z"/><path class="cls-2" d="M475.34,132v-1.9h2.06V132Zm0,8.83V133.1h2.06v7.77Z"/><path class="cls-2" d="M479.51,140.87V130.14h2.06v10.73Z"/><path class="cls-2" d="M483.68,140.87V130.14h2.05v10.73Z"/><path class="cls-2" d="M492.35,138.4l2,.34a3.34,3.34,0,0,1-1.25,1.72,3.7,3.7,0,0,1-2.14.59,3.47,3.47,0,0,1-3-1.33,4.45,4.45,0,0,1-.77-2.68,4.31,4.31,0,0,1,1-3,3.34,3.34,0,0,1,2.56-1.09,3.44,3.44,0,0,1,2.74,1.15,5,5,0,0,1,1,3.51h-5.16a2.09,2.09,0,0,0,.5,1.42,1.56,1.56,0,0,0,1.19.51,1.29,1.29,0,0,0,.81-.26A1.63,1.63,0,0,0,492.35,138.4Zm.12-2.08A2,2,0,0,0,492,135a1.47,1.47,0,0,0-2.18,0,1.87,1.87,0,0,0-.43,1.33Zm-2.63-4.18,1-2.19h2.3l-2,2.19Z"/></g><g id="lock-2"><path id="Tracé_3" data-name="Tracé 3" class="cls-3" d="M491.28,21.58H428.16a12.62,12.62,0,0,0-12.62,12.61V97.33A12.62,12.62,0,0,0,428.15,110h63.13a12.62,12.62,0,0,0,12.63-12.61h0V34.21A12.63,12.63,0,0,0,491.3,21.58Zm0,60A6.31,6.31,0,0,1,485,87.86h-50.5a6.32,6.32,0,0,1-6.31-6.31V59.83l27.32,13.66a9.6,9.6,0,0,0,4.24,1,9.28,9.28,0,0,0,4.24-1l27.32-13.66Zm0-28.78L461.14,67.84a3.11,3.11,0,0,1-2.82,0L428.16,52.77V50a6.32,6.32,0,0,1,6.32-6.31H485a6.31,6.31,0,0,1,6.3,6.31Z"/><path id="Tracé_9" data-name="Tracé 9" class="cls-4" d="M495.35,106.08v-2.91a8.56,8.56,0,1,1,17.12,0v2.91h.95a3.84,3.84,0,0,1,3.8,3.87v11.63a3.85,3.85,0,0,1-3.8,3.87h-19a3.84,3.84,0,0,1-3.8-3.87V110a3.83,3.83,0,0,1,3.8-3.87Zm3.8,0h9.51v-2.91a4.76,4.76,0,0,0-9.51-.24v3.15Z"/></g></g><path id="Tracé_14" data-name="Tracé 14" class="cls-3" d="M384.71,69.88l-14.2,14.2a2.84,2.84,0,0,1-4,0h0a2.84,2.84,0,0,1,0-4h0l9.35-9.34H348.63a2.84,2.84,0,1,1,0-5.68h27.22l-9.35-9.35a2.84,2.84,0,0,1,4-4h0l14.19,14.19A2.84,2.84,0,0,1,384.71,69.88Z"/><g id="signature"><text class="cls-5" transform="translate(238.77 140.87)">Signé</text><g id="signature-2"><path id="Tracé_6" data-name="Tracé 6" class="cls-3" d="M268.32,78.94a2.73,2.73,0,0,0-.79,1.91V91.29H278a2.7,2.7,0,0,0,1.9-.79L306.17,64,294.8,52.65Zm46.22-29.31-5.35-5.34a4.25,4.25,0,0,0-6,0l0,0-4.57,4.56L310,60.23l4.56-4.57a4.25,4.25,0,0,0,0-6ZM262.17,21.58V43h21.45Zm0,75.07a7.2,7.2,0,0,1-6.34-4,1.87,1.87,0,0,0-2.49-.91,1.82,1.82,0,0,0-.88.85l-1.3,2.58a2.83,2.83,0,0,1-2.39,1.48h-.19a2.64,2.64,0,0,1-2.34-1.84l-2.84-8.45-1.77,5.35a7.24,7.24,0,0,1-6.86,4.94h-2.09a2.68,2.68,0,0,1,0-5.36h2.08A1.86,1.86,0,0,0,236.53,90l3.06-9.15a4,4,0,0,1,7.63,0l2.32,7a7.51,7.51,0,0,1,10.51,1.52,6.86,6.86,0,0,1,.55.85,2,2,0,0,0,1.57,1.06V79.73a5.39,5.39,0,0,1,1.58-3.81l19.87-19.74V48.39H262.17A5.36,5.36,0,0,1,256.81,43V21.58H227.32a8,8,0,0,0-8,8h0V99.33a8.06,8.06,0,0,0,8,8h48.25a8,8,0,0,0,8.05-8h0V96.65Z"/><path id="Tracé_16" data-name="Tracé 16" class="cls-4" d="M273.79,107.38a15.5,15.5,0,1,1,15.5,15.5A15.5,15.5,0,0,1,273.79,107.38Zm22.51-2.68a1.69,1.69,0,0,0-.14-2.4,1.71,1.71,0,0,0-2.26,0l-6.55,6.55-2.67-2.67a1.7,1.7,0,0,0-2.4,2.4l3.87,3.87a1.7,1.7,0,0,0,2.4,0Z"/></g></g><path id="Tracé_13" data-name="Tracé 13" class="cls-3" d="M188.44,69.88l-14.2,14.2a2.83,2.83,0,0,1-4,0h0a2.83,2.83,0,0,1,0-4h0l9.35-9.34H152.37a2.84,2.84,0,0,1,0-5.68h27.22l-9.35-9.35a2.84,2.84,0,0,1,4-4h0l14.2,14.19A2.85,2.85,0,0,1,188.44,69.88Z"/><g id="written"><g id="mail"><path id="Tracé_1" data-name="Tracé 1" class="cls-3" d="M59.34,95.52a13,13,0,0,1-8.23-3L14.65,63.18v41A8.54,8.54,0,0,0,23,112.89H95.65a8.52,8.52,0,0,0,8.38-8.68v-41L67.59,92.58A13.19,13.19,0,0,1,59.34,95.52ZM17.5,58.13,54.54,88a7.61,7.61,0,0,0,9.61,0l37-29.87a8.29,8.29,0,0,0,2.84-6,8.54,8.54,0,0,0-8.38-8.68H23a8.54,8.54,0,0,0-8.38,8.68A7.78,7.78,0,0,0,17.5,58.13Z"/><path id="Tracé_15" data-name="Tracé 15" class="cls-4" d="M88.53,116a15.5,15.5,0,1,1,15.5,15.5A15.5,15.5,0,0,1,88.53,116ZM111,113.37a1.7,1.7,0,0,0-2.4-2.4l-6.55,6.55-2.68-2.68a1.7,1.7,0,0,0-2.4,2.4l3.88,3.88a1.7,1.7,0,0,0,2.4,0Z"/></g><g class="cls-1"><path class="cls-2" d="M45.75,142.67V131.93h8v1.82h-5.8v2.38H53.3v1.81H47.91v2.92h6v1.81Zm2.75-11.35,1-2.2h2.31l-2,2.2Z"/><path class="cls-2" d="M62.52,137.19l-2,.37a1.46,1.46,0,0,0-.47-.92,1.42,1.42,0,0,0-.94-.31,1.53,1.53,0,0,0-1.22.53,2.72,2.72,0,0,0-.46,1.78,3.19,3.19,0,0,0,.46,2,1.53,1.53,0,0,0,1.25.57,1.36,1.36,0,0,0,1-.34,2,2,0,0,0,.53-1.14l2,.34a3.54,3.54,0,0,1-1.21,2.1,3.68,3.68,0,0,1-2.39.71,3.57,3.57,0,0,1-2.72-1.07,4.89,4.89,0,0,1,0-6,3.61,3.61,0,0,1,2.75-1.08,3.81,3.81,0,0,1,2.26.61A3.43,3.43,0,0,1,62.52,137.19Z"/><path class="cls-2" d="M66.05,142.67H64v-7.78H65.9V136a3.38,3.38,0,0,1,.88-1,1.71,1.71,0,0,1,.9-.25,2.6,2.6,0,0,1,1.35.39l-.64,1.8a1.75,1.75,0,0,0-1-.34,1.15,1.15,0,0,0-.74.24,1.65,1.65,0,0,0-.47.86,12.57,12.57,0,0,0-.17,2.61Z"/><path class="cls-2" d="M69.92,133.83v-1.9h2v1.9Zm0,8.84v-7.78h2v7.78Z"/><path class="cls-2" d="M77.65,134.89v1.64H76.24v3.13a9.06,9.06,0,0,0,0,1.11.42.42,0,0,0,.19.26.56.56,0,0,0,.35.11,2.69,2.69,0,0,0,.82-.2l.18,1.6a4.19,4.19,0,0,1-1.63.3,2.66,2.66,0,0,1-1-.18,1.51,1.51,0,0,1-.66-.49,1.92,1.92,0,0,1-.29-.8,10.93,10.93,0,0,1-.06-1.45v-3.39h-1v-1.64h1v-1.55l2.06-1.2v2.75Z"/></g></g></g></svg>