<svg id="Calque_1" data-name="Calque 1" xmlns="http://www.w3.org/2000/svg" viewBox="0 0 419.62 199.12"><defs><style>.cls-1{fill:#263d5c;}.cls-2,.cls-3{isolation:isolate;}.cls-3{font-size:14.51px;font-family:Arial-BoldMT, Arial;font-weight:700;}.cls-3,.cls-4{fill:#fff;}.cls-5{fill:#48a682;}</style></defs><rect id="Rectangle_96" data-name="Rectangle 96" class="cls-1" x="10.43" y="10.26" width="379.47" height="165.03" rx="4.94"/><g id="PREUVE_DE_Dépôt-2" data-name="PREUVE DE Dépôt-2" class="cls-2"><text class="cls-3" transform="translate(215.98 46.48)">PREUVE DE DÉPÔT</text></g><circle class="cls-4" cx="387.1" cy="166.61" r="22.68"/><g id="Groupe_32" data-name="Groupe 32"><circle id="Ellipse_29" data-name="Ellipse 29" class="cls-4" cx="20.81" cy="154.04" r="5.44"/><circle id="Ellipse_30" data-name="Ellipse 30" class="cls-4" cx="20.81" cy="123.41" r="5.44"/><circle id="Ellipse_28" data-name="Ellipse 28" class="cls-4" cx="20.81" cy="92.77" r="5.44"/><circle id="Ellipse_27" data-name="Ellipse 27" class="cls-4" cx="20.81" cy="62.14" r="5.44"/><circle id="Ellipse_26" data-name="Ellipse 26" class="cls-4" cx="20.81" cy="31.5" r="5.44"/></g><g id="Groupe_33" data-name="Groupe 33"><circle id="Ellipse_29-2" data-name="Ellipse 29-2" class="cls-4" cx="379.52" cy="154.04" r="5.44"/><circle id="Ellipse_30-2" data-name="Ellipse 30-2" class="cls-4" cx="379.52" cy="123.41" r="5.44"/><circle id="Ellipse_28-2" data-name="Ellipse 28-2" class="cls-4" cx="379.52" cy="92.77" r="5.44"/><circle id="Ellipse_27-2" data-name="Ellipse 27-2" class="cls-4" cx="379.52" cy="62.14" r="5.44"/><circle id="Ellipse_26-2" data-name="Ellipse 26-2" class="cls-4" cx="379.52" cy="31.5" r="5.44"/></g><g id="Groupe_42" data-name="Groupe 42"><g id="Groupe_40" data-name="Groupe 40"><rect id="Rectangle_97" data-name="Rectangle 97" class="cls-4" x="215.98" y="64.61" width="134.39" height="36.56"/></g><g id="Groupe_41" data-name="Groupe 41"><rect id="Rectangle_98" data-name="Rectangle 98" class="cls-4" x="216.97" y="113.03" width="134.39" height="36.56"/></g><g id="Groupe_39" data-name="Groupe 39"><rect id="Rectangle_100" data-name="Rectangle 100" class="cls-4" x="49.96" y="126.86" width="134.39" height="22.73"/></g><g id="Groupe_38" data-name="Groupe 38"><rect id="Rectangle_101" data-name="Rectangle 101" class="cls-4" x="48.97" y="86.35" width="134.39" height="22.73"/></g></g><path id="Tracé_16" data-name="Tracé 16" class="cls-5" d="M363.77,166.56A23.33,23.33,0,1,1,387.1,189.9,23.34,23.34,0,0,1,363.77,166.56Zm33.89-4a2.56,2.56,0,0,0-3.62-3.62l-9.86,9.86-4-4a2.56,2.56,0,0,0-3.61,3.61l5.83,5.83a2.55,2.55,0,0,0,3.61,0Z"/></svg>